<svg xmlns="http://www.w3.org/2000/svg" viewBox="0 0 100 100" width="100" height="100">
  <rect width="100" height="100" rx="15" fill="#282c34" />
  <path fill="#ff9800" d="M20 80c0-33.14 26.86-60 60-60v10c-27.57 0-50 22.43-50 50H20z" />
  <path fill="#ff9800" d="M20 80c0-22.09 17.91-40 40-40v10c-16.57 0-30 13.43-30 30H20z" />
  <circle cx="30" cy="80" r="5" fill="#ff9800" />
  <rect x="45" y="30" width="40" height="10" rx="2" fill="#4caf50" />
  <rect x="50" y="45" width="30" height="20" rx="2" fill="#81c784" />
  <rect x="60" y="55" width="10" height="15" rx="1" fill="#388e3c" />
  <rect x="40" y="70" width="50" height="5" rx="2" fill="#777" />
</svg>
